<svg version="1.1" xmlns="http://www.w3.org/2000/svg" xmlns:xlink="http://www.w3.org/1999/xlink" width="6027" height="5828"><defs/><g><g transform="translate(-246,-358) scale(1,1)"><rect fill="#C0C0C0" stroke="none" x="1215" y="375" width="3928" height="5808" opacity="0.2"/></g><g transform="translate(-246,-358) scale(1,1)"><rect fill="#ffffff" stroke="none" x="1208" y="368" width="3928" height="5808"/></g><g transform="translate(-246,-358) scale(1,1)"><path fill="none" stroke="#000000" d="M 1208 368 L 5136 368 L 5136 6176 L 1208 6176 L 1208 368 Z Z" stroke-miterlimit="10"/></g><g transform="translate(-246,-358) scale(1,1)"><g><path fill="none" stroke="none"/><text fill="#000000" stroke="none" font-family="Arial" font-size="130px" font-style="normal" font-weight="bold" text-decoration="none" x="2738.55029296875" y="504.5">Library System</text></g></g><g transform="translate(-246,-358) scale(1,1)"><path fill="#74919f" stroke="none" d="M 483.88 2936.8 C 483.88 2844.1266105600002 555.120442624 2769 643 2769 C 730.879557376 2769 802.12 2844.1266105600002 802.12 2936.8 C 802.12 3029.47338944 730.879557376 3104.6 643 3104.6 C 555.120442624 3104.6 483.88 3029.47338944 483.88 2936.8 Z"/></g><g transform="translate(-246,-358) scale(1,1)"><path fill="none" stroke="#0a0909" d="M 483.88 2936.8 C 483.88 2844.1266105600002 555.120442624 2769 643 2769 C 730.879557376 2769 802.12 2844.1266105600002 802.12 2936.8 C 802.12 3029.47338944 730.879557376 3104.6 643 3104.6 C 555.120442624 3104.6 483.88 3029.47338944 483.88 2936.8 Z" stroke-miterlimit="10"/></g><g transform="translate(-246,-358) scale(1,1)"><path fill="none" stroke="#0a0909" d="M 643 3104.6 L 643 3421.4" stroke-miterlimit="10"/></g><g transform="translate(-246,-358) scale(1,1)"><path fill="none" stroke="#0a0909" d="M 474.52 3223.4 L 811.48 3223.4" stroke-miterlimit="10"/></g><g transform="translate(-246,-358) scale(1,1)"><path fill="none" stroke="#0a0909" d="M 643 3421.4 L 409 3757" stroke-miterlimit="10"/></g><g transform="translate(-246,-358) scale(1,1)"><path fill="none" stroke="#0a0909" d="M 643 3421.4 L 877 3757" stroke-miterlimit="10"/></g><g transform="translate(-246,-358) scale(1,1)"><path fill="none" stroke="#0a0909" d="M 256 3870 L 1030 3870" stroke-miterlimit="10"/></g><g transform="translate(-246,-358) scale(1,1)"><g><path fill="none" stroke="none"/><text fill="#000000" stroke="none" font-family="Arial" font-size="100px" font-style="normal" font-weight="bold" text-decoration="none" x="448.4443359375" y="3864.5">Librarian</text></g></g><g transform="translate(-246,-358) scale(1,1)"><path fill="#ff7f00" stroke="none" d="M 5800.916727272727 4283.54 C 5800.916727272727 4198.189907008 5866.544286538473 4129 5947.5 4129 C 6028.455713461527 4129 6094.083272727273 4198.189907008 6094.083272727273 4283.54 C 6094.083272727273 4368.890092992 6028.455713461527 4438.08 5947.5 4438.08 C 5866.544286538473 4438.08 5800.916727272727 4368.890092992 5800.916727272727 4283.54 Z"/></g><g transform="translate(-246,-358) scale(1,1)"><path fill="none" stroke="#000000" d="M 5800.916727272727 4283.54 C 5800.916727272727 4198.189907008 5866.544286538473 4129 5947.5 4129 C 6028.455713461527 4129 6094.083272727273 4198.189907008 6094.083272727273 4283.54 C 6094.083272727273 4368.890092992 6028.455713461527 4438.08 5947.5 4438.08 C 5866.544286538473 4438.08 5800.916727272727 4368.890092992 5800.916727272727 4283.54 Z" stroke-miterlimit="10"/></g><g transform="translate(-246,-358) scale(1,1)"><path fill="none" stroke="#000000" d="M 5947.5 4438.08 L 5947.5 4729.92" stroke-miterlimit="10"/></g><g transform="translate(-246,-358) scale(1,1)"><path fill="none" stroke="#000000" d="M 5792.294181818182 4547.52 L 6102.705818181818 4547.52" stroke-miterlimit="10"/></g><g transform="translate(-246,-358) scale(1,1)"><path fill="none" stroke="#000000" d="M 5947.5 4729.92 L 5731.936363636363 5039" stroke-miterlimit="10"/></g><g transform="translate(-246,-358) scale(1,1)"><path fill="none" stroke="#000000" d="M 5947.5 4729.92 L 6163.063636363637 5039" stroke-miterlimit="10"/></g><g transform="translate(-246,-358) scale(1,1)"><g><path fill="none" stroke="none"/><text fill="#000000" stroke="none" font-family="Arial" font-size="100px" font-style="normal" font-weight="bold" text-decoration="none" x="5764.1259765625" y="5146.5">Member</text></g></g><g transform="translate(-246,-358) scale(1,1)"><path fill="#C0C0C0" stroke="none" d="M 1663 1419 C 1663 1319.588736 1917.3022336 1239 2231 1239 C 2544.6977664 1239 2799 1319.588736 2799 1419 C 2799 1518.411264 2544.6977664 1599 2231 1599 C 1917.3022336 1599 1663 1518.411264 1663 1419 Z" opacity="0.2"/></g><g transform="translate(-246,-358) scale(1,1)"><path fill="#ffffff" stroke="none" d="M 1656 1412 C 1656 1312.588736 1910.3022336 1232 2224 1232 C 2537.6977664 1232 2792 1312.588736 2792 1412 C 2792 1511.411264 2537.6977664 1592 2224 1592 C 1910.3022336 1592 1656 1511.411264 1656 1412 Z"/></g><g transform="translate(-246,-358) scale(1,1)"><path fill="none" stroke="#000000" d="M 1656 1412 C 1656 1312.588736 1910.3022336 1232 2224 1232 C 2537.6977664 1232 2792 1312.588736 2792 1412 C 2792 1511.411264 2537.6977664 1592 2224 1592 C 1910.3022336 1592 1656 1511.411264 1656 1412 Z" stroke-miterlimit="10"/></g><g transform="translate(-246,-358) scale(1,1)"><g><path fill="none" stroke="none"/><text fill="#000000" stroke="none" font-family="Arial" font-size="100px" font-style="normal" font-weight="bold" text-decoration="none" x="1976.63671875" y="1462.5">Issue Book</text></g></g><g transform="translate(-246,-358) scale(1,1)"><path fill="#C0C0C0" stroke="none" d="M 2295 2475 C 2295 2371.1704576 2566.5392688 2287 2901.5 2287 C 3236.4607312 2287 3508 2371.1704576 3508 2475 C 3508 2578.8295424 3236.4607312 2663 2901.5 2663 C 2566.5392688 2663 2295 2578.8295424 2295 2475 Z" opacity="0.2"/></g><g transform="translate(-246,-358) scale(1,1)"><path fill="#ffffff" stroke="none" d="M 2288 2468 C 2288 2364.1704576 2559.5392688 2280 2894.5 2280 C 3229.4607312 2280 3501 2364.1704576 3501 2468 C 3501 2571.8295424 3229.4607312 2656 2894.5 2656 C 2559.5392688 2656 2288 2571.8295424 2288 2468 Z"/></g><g transform="translate(-246,-358) scale(1,1)"><path fill="none" stroke="#000000" d="M 2288 2468 C 2288 2364.1704576 2559.5392688 2280 2894.5 2280 C 3229.4607312 2280 3501 2364.1704576 3501 2468 C 3501 2571.8295424 3229.4607312 2656 2894.5 2656 C 2559.5392688 2656 2288 2571.8295424 2288 2468 Z" stroke-miterlimit="10"/></g><g transform="translate(-246,-358) scale(1,1)"><g><path fill="none" stroke="none"/><text fill="#000000" stroke="none" font-family="Arial" font-size="100px" font-style="normal" font-weight="bold" text-decoration="none" x="2552.654296875" y="2518.5">Maintain Books</text></g></g><g transform="translate(-246,-358) scale(1,1)"><path fill="#C0C0C0" stroke="none" d="M 2263 3263 C 2263 3165.7978752 2473.426144 3087 2733 3087 C 2992.573856 3087 3203 3165.7978752 3203 3263 C 3203 3360.2021248 2992.573856 3439 2733 3439 C 2473.426144 3439 2263 3360.2021248 2263 3263 Z" opacity="0.2"/></g><g transform="translate(-246,-358) scale(1,1)"><path fill="#ffffff" stroke="none" d="M 2256 3256 C 2256 3158.7978752 2466.426144 3080 2726 3080 C 2985.573856 3080 3196 3158.7978752 3196 3256 C 3196 3353.2021248 2985.573856 3432 2726 3432 C 2466.426144 3432 2256 3353.2021248 2256 3256 Z"/></g><g transform="translate(-246,-358) scale(1,1)"><path fill="none" stroke="#000000" d="M 2256 3256 C 2256 3158.7978752 2466.426144 3080 2726 3080 C 2985.573856 3080 3196 3158.7978752 3196 3256 C 3196 3353.2021248 2985.573856 3432 2726 3432 C 2466.426144 3432 2256 3353.2021248 2256 3256 Z" stroke-miterlimit="10"/></g><g transform="translate(-246,-358) scale(1,1)"><g><path fill="none" stroke="none"/><text fill="#000000" stroke="none" font-family="Arial" font-size="100px" font-style="normal" font-weight="bold" text-decoration="none" x="2423.0703125" y="3306.5">Return Books</text></g></g><g transform="translate(-246,-358) scale(1,1)"><path fill="none" stroke="#000000" d="M 1031 3311 L 2255 3271" stroke-miterlimit="10"/></g><g transform="translate(-246,-358) scale(1,1)"><path fill="none" stroke="#000000" d="M 2244.980240032415 3275.539208101859 L 2255 3271 L 2244.7052549510177 3267.124664611101" stroke-miterlimit="10"/></g><g transform="translate(-246,-358) scale(1,1)"><path fill="none" stroke="#000000" d="M 1031 2855 L 2074 1593" stroke-miterlimit="10"/></g><g transform="translate(-246,-358) scale(1,1)"><path fill="none" stroke="#000000" d="M 2070.7705898735035 1603.5152703357965 L 2074 1593 L 2064.2810432398705 1598.1518811607732" stroke-miterlimit="10"/></g><g transform="translate(-246,-358) scale(1,1)"><path fill="none" stroke="#000000" d="M 1031 3176 L 2397 2657" stroke-miterlimit="10"/></g><g transform="translate(-246,-358) scale(1,1)"><path fill="none" stroke="#000000" d="M 2388.9950077657654 2664.544541028442 L 2397 2657 L 2386.0048195856757 2656.6744118299785" stroke-miterlimit="10"/></g><g transform="translate(-246,-358) scale(1,1)"><path fill="#C0C0C0" stroke="none" d="M 3791 1991 C 3791 1911.4709888 3964.7134975999998 1847 4179 1847 C 4393.2865024 1847 4567 1911.4709888 4567 1991 C 4567 2070.5290112 4393.2865024 2135 4179 2135 C 3964.7134975999998 2135 3791 2070.5290112 3791 1991 Z" opacity="0.2"/></g><g transform="translate(-246,-358) scale(1,1)"><path fill="#ffffff" stroke="none" d="M 3784 1984 C 3784 1904.4709888 3957.7134975999998 1840 4172 1840 C 4386.2865024 1840 4560 1904.4709888 4560 1984 C 4560 2063.5290112 4386.2865024 2128 4172 2128 C 3957.7134975999998 2128 3784 2063.5290112 3784 1984 Z"/></g><g transform="translate(-246,-358) scale(1,1)"><path fill="none" stroke="#000000" d="M 3784 1984 C 3784 1904.4709888 3957.7134975999998 1840 4172 1840 C 4386.2865024 1840 4560 1904.4709888 4560 1984 C 4560 2063.5290112 4386.2865024 2128 4172 2128 C 3957.7134975999998 2128 3784 2063.5290112 3784 1984 Z" stroke-miterlimit="10"/></g><g transform="translate(-246,-358) scale(1,1)"><g><path fill="none" stroke="none"/><text fill="#000000" stroke="none" font-family="Arial" font-size="100px" font-style="normal" font-weight="bold" text-decoration="none" x="3930.1787109375" y="2034.5">Add Books</text></g></g><g transform="translate(-246,-358) scale(1,1)"><path fill="#C0C0C0" stroke="none" d="M 3975 2459 C 3975 2377.2618496 4207.1403312 2311 4493.5 2311 C 4779.8596688 2311 5012 2377.2618496 5012 2459 C 5012 2540.7381504 4779.8596688 2607 4493.5 2607 C 4207.1403312 2607 3975 2540.7381504 3975 2459 Z" opacity="0.2"/></g><g transform="translate(-246,-358) scale(1,1)"><path fill="#ffffff" stroke="none" d="M 3968 2452 C 3968 2370.2618496 4200.1403312 2304 4486.5 2304 C 4772.8596688 2304 5005 2370.2618496 5005 2452 C 5005 2533.7381504 4772.8596688 2600 4486.5 2600 C 4200.1403312 2600 3968 2533.7381504 3968 2452 Z"/></g><g transform="translate(-246,-358) scale(1,1)"><path fill="none" stroke="#000000" d="M 3968 2452 C 3968 2370.2618496 4200.1403312 2304 4486.5 2304 C 4772.8596688 2304 5005 2370.2618496 5005 2452 C 5005 2533.7381504 4772.8596688 2600 4486.5 2600 C 4200.1403312 2600 3968 2533.7381504 3968 2452 Z" stroke-miterlimit="10"/></g><g transform="translate(-246,-358) scale(1,1)"><g><path fill="none" stroke="none"/><text fill="#000000" stroke="none" font-family="Arial" font-size="100px" font-style="normal" font-weight="bold" text-decoration="none" x="4147.4619140625" y="2502.5">Remove Books</text></g></g><g transform="translate(-246,-358) scale(1,1)"><path fill="#C0C0C0" stroke="none" d="M 3607 2951 C 3607 2880.3075456 3822.7987264 2823 4089 2823 C 4355.2012736 2823 4571 2880.3075456 4571 2951 C 4571 3021.6924544 4355.2012736 3079 4089 3079 C 3822.7987264 3079 3607 3021.6924544 3607 2951 Z" opacity="0.2"/></g><g transform="translate(-246,-358) scale(1,1)"><path fill="#ffffff" stroke="none" d="M 3600 2944 C 3600 2873.3075456 3815.7987264 2816 4082 2816 C 4348.2012736 2816 4564 2873.3075456 4564 2944 C 4564 3014.6924544 4348.2012736 3072 4082 3072 C 3815.7987264 3072 3600 3014.6924544 3600 2944 Z"/></g><g transform="translate(-246,-358) scale(1,1)"><path fill="none" stroke="#000000" d="M 3600 2944 C 3600 2873.3075456 3815.7987264 2816 4082 2816 C 4348.2012736 2816 4564 2873.3075456 4564 2944 C 4564 3014.6924544 4348.2012736 3072 4082 3072 C 3815.7987264 3072 3600 3014.6924544 3600 2944 Z" stroke-miterlimit="10"/></g><g transform="translate(-246,-358) scale(1,1)"><g><path fill="none" stroke="none"/><text fill="#000000" stroke="none" font-family="Arial" font-size="100px" font-style="normal" font-weight="bold" text-decoration="none" x="3767.9130859375" y="2994.5">Update Books</text></g></g><g transform="translate(-246,-358) scale(1,1)"><path fill="none" stroke="#000000" d="M 3366 2657 L 3760 2815" stroke-miterlimit="10" stroke-dasharray="3"/></g><g transform="translate(-246,-358) scale(1,1)"><path fill="none" stroke="#000000" d="M 3749.000704503527 2815.1244932980553 L 3760 2815 L 3752.134293510902 2807.310353621436" stroke-miterlimit="10"/></g><g transform="translate(-246,-358) scale(1,1)"><g><path fill="none" stroke="none"/><text fill="#000000" stroke="none" font-family="Arial" font-size="70px" font-style="normal" font-weight="normal" text-decoration="none" x="3703.15625" y="2780.5">«include»</text></g></g><g transform="translate(-246,-358) scale(1,1)"><path fill="none" stroke="#000000" d="M 3502 2462 L 3967 2457" stroke-miterlimit="10" stroke-dasharray="3"/></g><g transform="translate(-246,-358) scale(1,1)"><path fill="none" stroke="#000000" d="M 3956.8831736125226 2461.3185441812766 L 3967 2457 L 3956.792651581893 2452.899995332762" stroke-miterlimit="10"/></g><g transform="translate(-246,-358) scale(1,1)"><g><path fill="none" stroke="none"/><text fill="#000000" stroke="none" font-family="Arial" font-size="70px" font-style="normal" font-weight="normal" text-decoration="none" x="3656.15625" y="2428.5">«include»</text></g></g><g transform="translate(-246,-358) scale(1,1)"><path fill="none" stroke="#000000" d="M 3393 2279 L 3789 2129" stroke-miterlimit="10" stroke-dasharray="3"/></g><g transform="translate(-246,-358) scale(1,1)"><path fill="none" stroke="#000000" d="M 3780.9874037272 2136.5364647527285 L 3789 2129 L 3778.0051535077655 2128.6633241734207" stroke-miterlimit="10"/></g><g transform="translate(-246,-358) scale(1,1)"><g><path fill="none" stroke="none"/><text fill="#000000" stroke="none" font-family="Arial" font-size="75px" font-style="normal" font-weight="normal" text-decoration="none" x="3423.453125" y="2081.5">«include»</text></g></g><g transform="translate(-246,-358) scale(1,1)"><path fill="#C0C0C0" stroke="none" d="M 3431 3691 C 3431 3609.2618496 3640.306856 3543 3898.5 3543 C 4156.693144 3543 4366 3609.2618496 4366 3691 C 4366 3772.7381504 4156.693144 3839 3898.5 3839 C 3640.306856 3839 3431 3772.7381504 3431 3691 Z" opacity="0.2"/></g><g transform="translate(-246,-358) scale(1,1)"><path fill="#ffffff" stroke="none" d="M 3424 3684 C 3424 3602.2618496 3633.306856 3536 3891.5 3536 C 4149.693144 3536 4359 3602.2618496 4359 3684 C 4359 3765.7381504 4149.693144 3832 3891.5 3832 C 3633.306856 3832 3424 3765.7381504 3424 3684 Z"/></g><g transform="translate(-246,-358) scale(1,1)"><path fill="none" stroke="#000000" d="M 3424 3684 C 3424 3602.2618496 3633.306856 3536 3891.5 3536 C 4149.693144 3536 4359 3602.2618496 4359 3684 C 4359 3765.7381504 4149.693144 3832 3891.5 3832 C 3633.306856 3832 3424 3765.7381504 3424 3684 Z" stroke-miterlimit="10"/></g><g transform="translate(-246,-358) scale(1,1)"><g><path fill="none" stroke="none"/><text fill="#000000" stroke="none" font-family="Arial" font-size="100px" font-style="normal" font-weight="bold" text-decoration="none" x="3588.5458984375" y="3734.5">Calculate fine</text></g></g><g transform="translate(-246,-358) scale(1,1)"><path fill="none" stroke="#000000" d="M 3197 3429 L 3485 3535" stroke-miterlimit="10" stroke-dasharray="3"/></g><g transform="translate(-246,-358) scale(1,1)"><path fill="none" stroke="#000000" d="M 3474.0088122692787 3535.440218432193 L 3485 3535 L 3476.916775183706 3527.5393380609194" stroke-miterlimit="10"/></g><g transform="translate(-246,-358) scale(1,1)"><g><path fill="none" stroke="none"/><text fill="#000000" stroke="none" font-family="Arial" font-size="70px" font-style="normal" font-weight="normal" text-decoration="none" x="3435.5" y="3427.5">«extend»</text></g></g><g transform="translate(-246,-358) scale(1,1)"><path fill="#C0C0C0" stroke="none" d="M 3879 4325.5 C 3879 4237.9628592 4093.6794384 4167 4358.5 4167 C 4623.3205616 4167 4838 4237.9628592 4838 4325.5 C 4838 4413.0371408 4623.3205616 4484 4358.5 4484 C 4093.6794384 4484 3879 4413.0371408 3879 4325.5 Z" opacity="0.2"/></g><g transform="translate(-246,-358) scale(1,1)"><path fill="#ffffff" stroke="none" d="M 3872 4318.5 C 3872 4230.9628592 4086.6794384 4160 4351.5 4160 C 4616.3205616 4160 4831 4230.9628592 4831 4318.5 C 4831 4406.0371408 4616.3205616 4477 4351.5 4477 C 4086.6794384 4477 3872 4406.0371408 3872 4318.5 Z"/></g><g transform="translate(-246,-358) scale(1,1)"><path fill="none" stroke="#000000" d="M 3872 4318.5 C 3872 4230.9628592 4086.6794384 4160 4351.5 4160 C 4616.3205616 4160 4831 4230.9628592 4831 4318.5 C 4831 4406.0371408 4616.3205616 4477 4351.5 4477 C 4086.6794384 4477 3872 4406.0371408 3872 4318.5 Z" stroke-miterlimit="10"/></g><g transform="translate(-246,-358) scale(1,1)"><g><path fill="none" stroke="none"/><text fill="#000000" stroke="none" font-family="Arial" font-size="100px" font-style="normal" font-weight="bold" text-decoration="none" x="4040.220703125" y="4369">Search Books</text></g></g><g transform="translate(-246,-358) scale(1,1)"><path fill="#C0C0C0" stroke="none" d="M 4039 4911 C 4039 4809.3795968 4210.9226368 4727 4423 4727 C 4635.0773632 4727 4807 4809.3795968 4807 4911 C 4807 5012.6204032 4635.0773632 5095 4423 5095 C 4210.9226368 5095 4039 5012.6204032 4039 4911 Z" opacity="0.2"/></g><g transform="translate(-246,-358) scale(1,1)"><path fill="#ffffff" stroke="none" d="M 4032 4904 C 4032 4802.3795968 4203.9226368 4720 4416 4720 C 4628.0773632 4720 4800 4802.3795968 4800 4904 C 4800 5005.6204032 4628.0773632 5088 4416 5088 C 4203.9226368 5088 4032 5005.6204032 4032 4904 Z"/></g><g transform="translate(-246,-358) scale(1,1)"><path fill="none" stroke="#000000" d="M 4032 4904 C 4032 4802.3795968 4203.9226368 4720 4416 4720 C 4628.0773632 4720 4800 4802.3795968 4800 4904 C 4800 5005.6204032 4628.0773632 5088 4416 5088 C 4203.9226368 5088 4032 5005.6204032 4032 4904 Z" stroke-miterlimit="10"/></g><g transform="translate(-246,-358) scale(1,1)"><g><path fill="none" stroke="none"/><text fill="#000000" stroke="none" font-family="Arial" font-size="100px" font-style="normal" font-weight="bold" text-decoration="none" x="4265.9267578125" y="4954.5">Inquiry</text></g></g><g transform="translate(-246,-358) scale(1,1)"><path fill="#C0C0C0" stroke="none" d="M 3175 5573.5 C 3175 5485.9628592 3542.126464 5415 3995 5415 C 4447.873536 5415 4815 5485.9628592 4815 5573.5 C 4815 5661.0371408 4447.873536 5732 3995 5732 C 3542.126464 5732 3175 5661.0371408 3175 5573.5 Z" opacity="0.2"/></g><g transform="translate(-246,-358) scale(1,1)"><path fill="#ffffff" stroke="none" d="M 3168 5566.5 C 3168 5478.9628592 3535.126464 5408 3988 5408 C 4440.873536 5408 4808 5478.9628592 4808 5566.5 C 4808 5654.0371408 4440.873536 5725 3988 5725 C 3535.126464 5725 3168 5654.0371408 3168 5566.5 Z"/></g><g transform="translate(-246,-358) scale(1,1)"><path fill="none" stroke="#000000" d="M 3168 5566.5 C 3168 5478.9628592 3535.126464 5408 3988 5408 C 4440.873536 5408 4808 5478.9628592 4808 5566.5 C 4808 5654.0371408 4440.873536 5725 3988 5725 C 3535.126464 5725 3168 5654.0371408 3168 5566.5 Z" stroke-miterlimit="10"/></g><g transform="translate(-246,-358) scale(1,1)"><g><path fill="none" stroke="none"/><text fill="#000000" stroke="none" font-family="Arial" font-size="100px" font-style="normal" font-weight="bold" text-decoration="none" x="3457.1650390625" y="5617">Request for Book return</text></g></g><g transform="translate(-246,-358) scale(1,1)"><path fill="#C0C0C0" stroke="none" d="M 1751 5141.5 C 1751 5071.6359728 1951.352552 5015 2198.5 5015 C 2445.647448 5015 2646 5071.6359728 2646 5141.5 C 2646 5211.3640272 2445.647448 5268 2198.5 5268 C 1951.352552 5268 1751 5211.3640272 1751 5141.5 Z" opacity="0.2"/></g><g transform="translate(-246,-358) scale(1,1)"><path fill="#ffffff" stroke="none" d="M 1744 5134.5 C 1744 5064.6359728 1944.352552 5008 2191.5 5008 C 2438.647448 5008 2639 5064.6359728 2639 5134.5 C 2639 5204.3640272 2438.647448 5261 2191.5 5261 C 1944.352552 5261 1744 5204.3640272 1744 5134.5 Z"/></g><g transform="translate(-246,-358) scale(1,1)"><path fill="none" stroke="#000000" d="M 1744 5134.5 C 1744 5064.6359728 1944.352552 5008 2191.5 5008 C 2438.647448 5008 2639 5064.6359728 2639 5134.5 C 2639 5204.3640272 2438.647448 5261 2191.5 5261 C 1944.352552 5261 1744 5204.3640272 1744 5134.5 Z" stroke-miterlimit="10"/></g><g transform="translate(-246,-358) scale(1,1)"><g><path fill="none" stroke="none"/><text fill="#000000" stroke="none" font-family="Arial" font-size="100px" font-style="normal" font-weight="bold" text-decoration="none" x="1896.87109375" y="5185">Paid the Fine</text></g></g><g transform="translate(-246,-358) scale(1,1)"><path fill="#C0C0C0" stroke="none" d="M 1967 4471 C 1967 4382.634432 2251.5230096 4311 2602.5 4311 C 2953.4769904 4311 3238 4382.634432 3238 4471 C 3238 4559.365568 2953.4769904 4631 2602.5 4631 C 2251.5230096 4631 1967 4559.365568 1967 4471 Z" opacity="0.2"/></g><g transform="translate(-246,-358) scale(1,1)"><path fill="#ffffff" stroke="none" d="M 1960 4464 C 1960 4375.634432 2244.5230096 4304 2595.5 4304 C 2946.4769904 4304 3231 4375.634432 3231 4464 C 3231 4552.365568 2946.4769904 4624 2595.5 4624 C 2244.5230096 4624 1960 4552.365568 1960 4464 Z"/></g><g transform="translate(-246,-358) scale(1,1)"><path fill="none" stroke="#000000" d="M 1960 4464 C 1960 4375.634432 2244.5230096 4304 2595.5 4304 C 2946.4769904 4304 3231 4375.634432 3231 4464 C 3231 4552.365568 2946.4769904 4624 2595.5 4624 C 2244.5230096 4624 1960 4552.365568 1960 4464 Z" stroke-miterlimit="10"/></g><g transform="translate(-246,-358) scale(1,1)"><g><path fill="none" stroke="none"/><text fill="#000000" stroke="none" font-family="Arial" font-size="100px" font-style="normal" font-weight="bold" text-decoration="none" x="2184.171875" y="4514.5">Request for Books</text></g></g><g transform="translate(-246,-358) scale(1,1)"><path fill="none" stroke="#000000" d="M 5631 4576 L 4832 4415" stroke-miterlimit="10"/></g><g transform="translate(-246,-358) scale(1,1)"><path fill="none" stroke="#000000" d="M 4842.793947551165 4412.880873702985 L 4832 4415 L 4841.13092208401 4421.13402493439" stroke-miterlimit="10"/></g><g transform="translate(-246,-358) scale(1,1)"><path fill="none" stroke="#000000" d="M 5631 4694 L 4801 4838" stroke-miterlimit="10"/></g><g transform="translate(-246,-358) scale(1,1)"><path fill="none" stroke="#000000" d="M 4810.29351766773 4832.11522903083 L 4801 4838 L 4811.732670821959 4840.410347905899" stroke-miterlimit="10"/></g><g transform="translate(-246,-358) scale(1,1)"><path fill="none" stroke="#000000" d="M 5631 4789 L 4324 5407" stroke-miterlimit="10"/></g><g transform="translate(-246,-358) scale(1,1)"><path fill="none" stroke="#000000" d="M 4331.38798915922 5398.850299626167 L 4324 5407 L 4334.986805632792 5406.46138883484" stroke-miterlimit="10"/></g><g transform="translate(-246,-358) scale(1,1)"><path fill="none" stroke="#000000" d="M 3327 5407 L 2640 5242" stroke-miterlimit="10" stroke-dasharray="3"/></g><g transform="translate(-246,-358) scale(1,1)"><path fill="none" stroke="#000000" d="M 2650.864727749809 5240.280206139523 L 2640 5242 L 2648.8986005686215 5248.46644476665" stroke-miterlimit="10"/></g><g transform="translate(-246,-358) scale(1,1)"><g><path fill="none" stroke="none"/><text fill="#000000" stroke="none" font-family="Arial" font-size="70px" font-style="normal" font-weight="normal" text-decoration="none" x="3349.5" y="5339.5">«extend»</text></g></g><g transform="translate(-246,-358) scale(1,1)"><path fill="none" stroke="#000000" d="M 4031 4811 L 3232 4618" stroke-miterlimit="10" stroke-dasharray="3"/></g><g transform="translate(-246,-358) scale(1,1)"><path fill="none" stroke="#000000" d="M 3242.8669572790823 4616.2943507117225 L 3232 4618 L 3240.8901753609707 4624.478023004836" stroke-miterlimit="10"/></g><g transform="translate(-246,-358) scale(1,1)"><g><path fill="none" stroke="none"/><text fill="#000000" stroke="none" font-family="Arial" font-size="70px" font-style="normal" font-weight="normal" text-decoration="none" x="3624.15625" y="4907.5">«include»</text></g></g></g></svg>