<svg version="1.1" xmlns="http://www.w3.org/2000/svg" xmlns:xlink="http://www.w3.org/1999/xlink" width="614" height="578"><defs/><g><g transform="translate(-1894,-238) scale(1,1)"><rect fill="#C0C0C0" stroke="none" x="1911" y="271" width="312" height="130" opacity="0.2"/></g><g transform="translate(-1894,-238) scale(1,1)"><rect fill="#ffffff" stroke="none" x="1904" y="264" width="312" height="130"/></g><g transform="translate(-1894,-238) scale(1,1)"><path fill="none" stroke="#000000" d="M 1904 264 L 2216 264 L 2216 394 L 1904 394 L 1904 264 Z Z" stroke-miterlimit="10"/></g><g transform="translate(-1894,-238) scale(1,1)"><path fill="none" stroke="#000000" d="M 1904 289 L 2216 289" stroke-miterlimit="10"/></g><g transform="translate(-1894,-238) scale(1,1)"><path fill="none" stroke="#000000" d="M 1904 327 L 2216 327" stroke-miterlimit="10"/></g><g transform="translate(-1894,-238) scale(1,1)"><g><path fill="none" stroke="none"/><text fill="#000000" stroke="none" font-family="Arial" font-size="13px" font-style="normal" font-weight="bold" text-decoration="none" x="2034.707763671875" y="283.5">Librarian</text></g></g><g transform="translate(-1894,-238) scale(1,1)"><g><path fill="none" stroke="none"/><text fill="#000000" stroke="none" font-family="Arial" font-size="13px" font-style="normal" font-weight="normal" text-decoration="none" x="1909" y="306.5">+Name: text</text></g></g><g transform="translate(-1894,-238) scale(1,1)"><g><path fill="none" stroke="none"/><text fill="#000000" stroke="none" font-family="Arial" font-size="13px" font-style="normal" font-weight="normal" text-decoration="none" x="1909" y="321.5">+Password: text</text></g></g><g transform="translate(-1894,-238) scale(1,1)"><g><path fill="none" stroke="none"/><text fill="#000000" stroke="none" font-family="Arial" font-size="13px" font-style="normal" font-weight="normal" text-decoration="none" x="1909" y="344.5">+SearchBook()</text></g></g><g transform="translate(-1894,-238) scale(1,1)"><g><path fill="none" stroke="none"/><text fill="#000000" stroke="none" font-family="Arial" font-size="13px" font-style="normal" font-weight="normal" text-decoration="none" x="1909" y="359.5">+VerifyMember()</text></g></g><g transform="translate(-1894,-238) scale(1,1)"><g><path fill="none" stroke="none"/><text fill="#000000" stroke="none" font-family="Arial" font-size="13px" font-style="normal" font-weight="normal" text-decoration="none" x="1909" y="374.5">+IssueBook()</text></g></g><g transform="translate(-1894,-238) scale(1,1)"><g><path fill="none" stroke="none"/><text fill="#000000" stroke="none" font-family="Arial" font-size="13px" font-style="normal" font-weight="normal" text-decoration="none" x="1909" y="389.5">+ReturnBook()</text></g></g><g transform="translate(-1894,-238) scale(1,1)"><rect fill="#C0C0C0" stroke="none" x="2311" y="255" width="194" height="160" opacity="0.2"/></g><g transform="translate(-1894,-238) scale(1,1)"><rect fill="#ffffff" stroke="none" x="2304" y="248" width="194" height="160"/></g><g transform="translate(-1894,-238) scale(1,1)"><path fill="none" stroke="#000000" d="M 2304 248 L 2498 248 L 2498 408 L 2304 408 L 2304 248 Z Z" stroke-miterlimit="10"/></g><g transform="translate(-1894,-238) scale(1,1)"><path fill="none" stroke="#000000" d="M 2304 273 L 2498 273" stroke-miterlimit="10"/></g><g transform="translate(-1894,-238) scale(1,1)"><path fill="none" stroke="#000000" d="M 2304 371 L 2498 371" stroke-miterlimit="10"/></g><g transform="translate(-1894,-238) scale(1,1)"><g><path fill="none" stroke="none"/><text fill="#000000" stroke="none" font-family="Arial" font-size="13px" font-style="normal" font-weight="bold" text-decoration="none" x="2386.1845703125" y="267.5">Book</text></g></g><g transform="translate(-1894,-238) scale(1,1)"><g><path fill="none" stroke="none"/><text fill="#000000" stroke="none" font-family="Arial" font-size="13px" font-style="normal" font-weight="normal" text-decoration="none" x="2309" y="290.5">+BookID: text</text></g></g><g transform="translate(-1894,-238) scale(1,1)"><g><path fill="none" stroke="none"/><text fill="#000000" stroke="none" font-family="Arial" font-size="13px" font-style="normal" font-weight="normal" text-decoration="none" x="2309" y="305.5">+Name: text</text></g></g><g transform="translate(-1894,-238) scale(1,1)"><g><path fill="none" stroke="none"/><text fill="#000000" stroke="none" font-family="Arial" font-size="13px" font-style="normal" font-weight="normal" text-decoration="none" x="2309" y="320.5">+Author: text</text></g></g><g transform="translate(-1894,-238) scale(1,1)"><g><path fill="none" stroke="none"/><text fill="#000000" stroke="none" font-family="Arial" font-size="13px" font-style="normal" font-weight="normal" text-decoration="none" x="2309" y="335.5">+Status: text</text></g></g><g transform="translate(-1894,-238) scale(1,1)"><g><path fill="none" stroke="none"/><text fill="#000000" stroke="none" font-family="Arial" font-size="13px" font-style="normal" font-weight="normal" text-decoration="none" x="2309" y="350.5">+Price: double</text></g></g><g transform="translate(-1894,-238) scale(1,1)"><g><path fill="none" stroke="none"/><text fill="#000000" stroke="none" font-family="Arial" font-size="13px" font-style="normal" font-weight="normal" text-decoration="none" x="2309" y="365.5">+PublicationYear: date</text></g></g><g transform="translate(-1894,-238) scale(1,1)"><g><path fill="none" stroke="none"/><text fill="#000000" stroke="none" font-family="Arial" font-size="13px" font-style="normal" font-weight="normal" text-decoration="none" x="2309" y="388.5">+UpdateStatus()</text></g></g><g transform="translate(-1894,-238) scale(1,1)"><g><path fill="none" stroke="none"/><text fill="#000000" stroke="none" font-family="Arial" font-size="13px" font-style="normal" font-weight="normal" text-decoration="none" x="2309" y="403.5">+DisplayBookDetail()</text></g></g><g transform="translate(-1894,-238) scale(1,1)"><path fill="none" stroke="#000000" d="M 2217 329 L 2303 328" stroke-miterlimit="10"/></g><g transform="translate(-1894,-238) scale(1,1)"><rect fill="#C0C0C0" stroke="none" x="2303" y="439" width="193" height="130" opacity="0.2"/></g><g transform="translate(-1894,-238) scale(1,1)"><rect fill="#ffffff" stroke="none" x="2296" y="432" width="193" height="130"/></g><g transform="translate(-1894,-238) scale(1,1)"><path fill="none" stroke="#000000" d="M 2296 432 L 2489 432 L 2489 562 L 2296 562 L 2296 432 Z Z" stroke-miterlimit="10"/></g><g transform="translate(-1894,-238) scale(1,1)"><path fill="none" stroke="#000000" d="M 2296 457 L 2489 457" stroke-miterlimit="10"/></g><g transform="translate(-1894,-238) scale(1,1)"><path fill="none" stroke="#000000" d="M 2296 540 L 2489 540" stroke-miterlimit="10"/></g><g transform="translate(-1894,-238) scale(1,1)"><g><path fill="none" stroke="none"/><text fill="#000000" stroke="none" font-family="Arial" font-size="13px" font-style="normal" font-weight="bold" text-decoration="none" x="2358.5400390625" y="451.5">Transaction</text></g></g><g transform="translate(-1894,-238) scale(1,1)"><g><path fill="none" stroke="none"/><text fill="#000000" stroke="none" font-family="Arial" font-size="13px" font-style="normal" font-weight="normal" text-decoration="none" x="2301" y="474.5">+TransactionID: text</text></g></g><g transform="translate(-1894,-238) scale(1,1)"><g><path fill="none" stroke="none"/><text fill="#000000" stroke="none" font-family="Arial" font-size="13px" font-style="normal" font-weight="normal" text-decoration="none" x="2301" y="489.5">+MemberID: text</text></g></g><g transform="translate(-1894,-238) scale(1,1)"><g><path fill="none" stroke="none"/><text fill="#000000" stroke="none" font-family="Arial" font-size="13px" font-style="normal" font-weight="normal" text-decoration="none" x="2301" y="504.5">+BookID: text</text></g></g><g transform="translate(-1894,-238) scale(1,1)"><g><path fill="none" stroke="none"/><text fill="#000000" stroke="none" font-family="Arial" font-size="13px" font-style="normal" font-weight="normal" text-decoration="none" x="2301" y="519.5">+DateOfIssue: date</text></g></g><g transform="translate(-1894,-238) scale(1,1)"><g><path fill="none" stroke="none"/><text fill="#000000" stroke="none" font-family="Arial" font-size="13px" font-style="normal" font-weight="normal" text-decoration="none" x="2301" y="534.5">+DueDate: date</text></g></g><g transform="translate(-1894,-238) scale(1,1)"><g><path fill="none" stroke="none"/><text fill="#000000" stroke="none" font-family="Arial" font-size="13px" font-style="normal" font-weight="normal" text-decoration="none" x="2301" y="557.5">+CreateTransaction()</text></g></g><g transform="translate(-1894,-238) scale(1,1)"><path fill="none" stroke="#000000" d="M 2190 395 L 2295 448" stroke-miterlimit="10"/></g><g transform="translate(-1894,-238) scale(1,1)"><rect fill="#C0C0C0" stroke="none" x="1967" y="623" width="192" height="190" opacity="0.2"/></g><g transform="translate(-1894,-238) scale(1,1)"><rect fill="#ffffff" stroke="none" x="1960" y="616" width="192" height="190"/></g><g transform="translate(-1894,-238) scale(1,1)"><path fill="none" stroke="#000000" d="M 1960 616 L 2152 616 L 2152 806 L 1960 806 L 1960 616 Z Z" stroke-miterlimit="10"/></g><g transform="translate(-1894,-238) scale(1,1)"><path fill="none" stroke="#000000" d="M 1960 641 L 2152 641" stroke-miterlimit="10"/></g><g transform="translate(-1894,-238) scale(1,1)"><path fill="none" stroke="#000000" d="M 1960 709 L 2152 709" stroke-miterlimit="10"/></g><g transform="translate(-1894,-238) scale(1,1)"><g><path fill="none" stroke="none"/><text fill="#000000" stroke="none" font-family="Arial" font-size="13px" font-style="normal" font-weight="bold" text-decoration="none" x="2018.431396484375" y="635.5">MemberData</text></g></g><g transform="translate(-1894,-238) scale(1,1)"><g><path fill="none" stroke="none"/><text fill="#000000" stroke="none" font-family="Arial" font-size="13px" font-style="normal" font-weight="normal" text-decoration="none" x="1965" y="658.5">+MemberID: text</text></g></g><g transform="translate(-1894,-238) scale(1,1)"><g><path fill="none" stroke="none"/><text fill="#000000" stroke="none" font-family="Arial" font-size="13px" font-style="normal" font-weight="normal" text-decoration="none" x="1965" y="673.5">+Name: text</text></g></g><g transform="translate(-1894,-238) scale(1,1)"><g><path fill="none" stroke="none"/><text fill="#000000" stroke="none" font-family="Arial" font-size="13px" font-style="normal" font-weight="normal" text-decoration="none" x="1965" y="688.5">+Adress: text</text></g></g><g transform="translate(-1894,-238) scale(1,1)"><g><path fill="none" stroke="none"/><text fill="#000000" stroke="none" font-family="Arial" font-size="13px" font-style="normal" font-weight="normal" text-decoration="none" x="1965" y="703.5">+PhoneNo: double</text></g></g><g transform="translate(-1894,-238) scale(1,1)"><g><path fill="none" stroke="none"/><text fill="#000000" stroke="none" font-family="Arial" font-size="13px" font-style="normal" font-weight="normal" text-decoration="none" x="1965" y="726.5">+IssueBook()</text></g></g><g transform="translate(-1894,-238) scale(1,1)"><g><path fill="none" stroke="none"/><text fill="#000000" stroke="none" font-family="Arial" font-size="13px" font-style="normal" font-weight="normal" text-decoration="none" x="1965" y="741.5">+ReturnBook()</text></g></g><g transform="translate(-1894,-238) scale(1,1)"><g><path fill="none" stroke="none"/><text fill="#000000" stroke="none" font-family="Arial" font-size="13px" font-style="normal" font-weight="normal" text-decoration="none" x="1965" y="756.5">+PayFine(Dt: date)</text></g></g><g transform="translate(-1894,-238) scale(1,1)"><g><path fill="none" stroke="none"/><text fill="#000000" stroke="none" font-family="Arial" font-size="13px" font-style="normal" font-weight="normal" text-decoration="none" x="1965" y="771.5">+AddNewUser()</text></g></g><g transform="translate(-1894,-238) scale(1,1)"><g><path fill="none" stroke="none"/><text fill="#000000" stroke="none" font-family="Arial" font-size="13px" font-style="normal" font-weight="normal" text-decoration="none" x="1965" y="786.5">+UpdateDetails()</text></g></g><g transform="translate(-1894,-238) scale(1,1)"><g><path fill="none" stroke="none"/><text fill="#000000" stroke="none" font-family="Arial" font-size="13px" font-style="normal" font-weight="normal" text-decoration="none" x="1965" y="801.5">+BookPurchase()</text></g></g><g transform="translate(-1894,-238) scale(1,1)"><path fill="none" stroke="#000000" d="M 2059 395 L 2057 615" stroke-miterlimit="10"/></g></g></svg>